<?xml version="1.0" encoding="UTF-8"?>
<svg id="Layer_2" data-name="Layer 2" xmlns="http://www.w3.org/2000/svg" viewBox="0 0 705.86 812.47">
  <defs>
    <style>
      .cls-1 {
        fill: #f05e23;
      }

      .cls-1, .cls-2 {
        fill-rule: evenodd;
      }
    </style>
  </defs>
  <g id="Layer_1-2" data-name="Layer 1">
    <g>
      <path class="cls-2" d="m465.2,0c-47.94,0-86.81,38.87-86.81,86.81,0,35.6,69.28,174.86,86.81,214.97,17.53-40.11,86.81-179.37,86.81-214.97,0-47.94-38.87-86.81-86.81-86.81Zm0,129.39c-26.48,0-47.95-21.47-47.95-47.95s21.47-47.95,47.95-47.95,47.95,21.47,47.95,47.95-21.47,47.95-47.95,47.95Z"/>
      <path class="cls-1" d="m555.45,309.12c-29.94,59.73-72.88,178.02-82.87,240.17-13.48,83.8-165.48,80.18-178.52,1.45v-184.81c0-41.94-20.75-73.76-60.67-87.37-13.95-4.76-29.34-7.01-45.13-7.29l164.67-164.66,7.74,7.74c21.02,76.35,71.11,167.08,104.53,243.54,14.11-32.28,28.17-63.95,43.19-95.83l47.06,47.06Z"/>
      <path class="cls-1" d="m705.86,459.54l-352.93,352.93L0,459.54l143.82-143.83c23.59-4.94,53.64-7.22,76.75.67,23.87,8.14,33.49,24.6,33.49,49.55v186.14c0,112.29,234.88,146.35,257.9,3.48,9.43-58.66,47.14-159.1,73.14-216.77l120.76,120.76Z"/>
    </g>
  </g>
</svg>