<?xml version="1.0" encoding="utf-8"?>
<!-- Generator: Adobe Illustrator 27.4.1, SVG Export Plug-In . SVG Version: 6.00 Build 0)  -->
<svg version="1.1" id="Layer_1" xmlns:serif="http://www.serif.com/"
	 xmlns="http://www.w3.org/2000/svg" xmlns:xlink="http://www.w3.org/1999/xlink" x="0px" y="0px" viewBox="0 0 24 30"
	 style="enable-background:new 0 0 24 30;" xml:space="preserve">
<style type="text/css">
	.st0{fill-rule:evenodd;clip-rule:evenodd;fill:#F05E23;}
</style>
<g>
	<path class="st0" d="M20.8,8.4c0-0.5-0.2-0.9-0.5-1.2c-1-1-4.4-4.4-5.4-5.4c-0.3-0.3-0.8-0.5-1.2-0.5c-1.3,0-5.2,0-7.6,0
		c-0.7,0-1.4,0.3-1.9,0.8C3.5,2.6,3.3,3.3,3.3,4c0,3.8,0,12.2,0,16c0,0.7,0.3,1.4,0.8,1.9c0.5,0.5,1.2,0.8,1.9,0.8h12
		c1.5,0,2.8-1.2,2.8-2.8V8.4z M19.2,8.4V20c0,0.7-0.6,1.2-1.2,1.2H6c-0.3,0-0.6-0.1-0.9-0.4c-0.2-0.2-0.4-0.6-0.4-0.9V4
		c0-0.3,0.1-0.6,0.4-0.9C5.4,2.9,5.7,2.8,6,2.8h7.6c0.1,0,0.1,0,0.2,0.1l5.4,5.4C19.2,8.3,19.2,8.3,19.2,8.4z"/>
	<path class="st0" d="M13.2,2.5V6c0,1.5,1.2,2.8,2.8,2.8h3.5c0.4,0,0.8-0.3,0.8-0.8c0-0.4-0.3-0.8-0.8-0.8H16
		c-0.7,0-1.2-0.6-1.2-1.2V2.5c0-0.4-0.3-0.8-0.8-0.8S13.2,2.1,13.2,2.5z"/>
	<path class="st0" d="M12.8,18v-7.5c0-0.4-0.3-0.8-0.8-0.8s-0.8,0.3-0.8,0.8V18c0,0.4,0.3,0.8,0.8,0.8S12.8,18.4,12.8,18z"/>
	<path class="st0" d="M10,13.5l2-2l2,2c0.3,0.3,0.8,0.3,1.1,0c0.3-0.3,0.3-0.8,0-1.1L12.5,10c-0.3-0.3-0.8-0.3-1.1,0L9,12.5
		c-0.3,0.3-0.3,0.8,0,1.1C9.3,13.8,9.7,13.8,10,13.5z"/>
</g>
</svg>
